<?xml version="1.0" encoding="UTF-8" standalone="no"?>
<!-- Copyright 2017 mathsisfun.com -->

<svg
   xmlns:dc="http://purl.org/dc/elements/1.1/"
   xmlns:cc="http://creativecommons.org/ns#"
   xmlns:rdf="http://www.w3.org/1999/02/22-rdf-syntax-ns#"
   xmlns:svg="http://www.w3.org/2000/svg"
   xmlns="http://www.w3.org/2000/svg"
   xmlns:xlink="http://www.w3.org/1999/xlink"
   xmlns:sodipodi="http://sodipodi.sourceforge.net/DTD/sodipodi-0.dtd"
   xmlns:inkscape="http://www.inkscape.org/namespaces/inkscape"
   width="1283.2"
   height="341.7"
   version="1.1"
   id="svg2"
   inkscape:version="0.91 r13725"
   sodipodi:docname="electromagnetic-spectrum-block.svg">
  <metadata
     id="metadata483">
    <rdf:RDF>
      <cc:Work
         rdf:about="">
        <dc:format>image/svg+xml</dc:format>
        <dc:type
           rdf:resource="http://purl.org/dc/dcmitype/StillImage" />
      </cc:Work>
    </rdf:RDF>
  </metadata>
  <sodipodi:namedview
     pagecolor="#ffffff"
     bordercolor="#666666"
     borderopacity="1"
     objecttolerance="10"
     gridtolerance="10"
     guidetolerance="10"
     inkscape:pageopacity="0"
     inkscape:pageshadow="2"
     inkscape:window-width="1366"
     inkscape:window-height="745"
     id="namedview481"
     showgrid="false"
     inkscape:zoom="0.73895747"
     inkscape:cx="702.66569"
     inkscape:cy="93.553786"
     inkscape:window-x="-8"
     inkscape:window-y="-8"
     inkscape:window-maximized="1"
     inkscape:current-layer="svg2" />
  <defs
     id="defs4">
    <linearGradient
       id="id5">
      <stop
         offset="0"
         style="stop-color:white; stop-opacity:1;"
         id="stop7" />
      <stop
         offset="1"
         style="stop-color:#81f318; stop-opacity:1;"
         id="stop9" />
    </linearGradient>
    <linearGradient
       id="id3">
      <stop
         offset="0"
         style="stop-color:white; stop-opacity:1;"
         id="stop12" />
      <stop
         offset="1"
         style="stop-color:#eaf318; stop-opacity:1;"
         id="stop14" />
    </linearGradient>
    <linearGradient
       id="id1"
       gradientTransform="matrix(-2.3629,0,0,-0.4232,1037.3,217.73)"
       x1="122.2"
       y1="-1671.5"
       x2="292.3"
       y2="-1671.5"
       gradientUnits="userSpaceOnUse">
      <stop
         offset="0"
         stop-color="#8000ff"
         id="stop17" />
      <stop
         offset="0.1"
         stop-color="#00f"
         id="stop19" />
      <stop
         offset="0.2"
         stop-color="#0080ff"
         id="stop21" />
      <stop
         offset="0.3"
         stop-color="#0ff"
         id="stop23" />
      <stop
         offset="0.4"
         stop-color="#00ff80"
         id="stop25" />
      <stop
         offset="0.5"
         stop-color="#0f0"
         id="stop27" />
      <stop
         offset="0.6"
         stop-color="#80ff00"
         id="stop29" />
      <stop
         offset="0.7"
         stop-color="#ff0"
         id="stop31" />
      <stop
         offset="0.8"
         stop-color="#ff8000"
         id="stop33" />
      <stop
         offset="0.9"
         stop-color="red"
         id="stop35" />
      <stop
         offset="1"
         stop-color="maroon"
         id="stop37" />
    </linearGradient>
    <linearGradient
       id="id2"
       gradientTransform="matrix(-0.1233,0,0,-0.30489,554.21,199.55)"
       x1="122.2"
       y1="-1671.5"
       x2="292.3"
       y2="-1671.5"
       gradientUnits="userSpaceOnUse">
      <stop
         offset="0"
         stop-color="#8000ff"
         id="stop40" />
      <stop
         offset="0.1"
         stop-color="#00f"
         id="stop42" />
      <stop
         offset="0.2"
         stop-color="#0080ff"
         id="stop44" />
      <stop
         offset="0.3"
         stop-color="#0ff"
         id="stop46" />
      <stop
         offset="0.4"
         stop-color="#00ff80"
         id="stop48" />
      <stop
         offset="0.5"
         stop-color="#0f0"
         id="stop50" />
      <stop
         offset="0.6"
         stop-color="#80ff00"
         id="stop52" />
      <stop
         offset="0.7"
         stop-color="#ff0"
         id="stop54" />
      <stop
         offset="0.8"
         stop-color="#ff8000"
         id="stop56" />
      <stop
         offset="0.9"
         stop-color="red"
         id="stop58" />
      <stop
         offset="1"
         stop-color="maroon"
         id="stop60" />
    </linearGradient>
    <linearGradient
       id="id10"
       gradientTransform="matrix(-1.1094,0,0,-0.35242,1066.62,-245.783)"
       xlink:href="#id1"
       x1="122.2"
       y1="-1671.5"
       x2="292.3"
       y2="-1671.5"
       gradientUnits="userSpaceOnUse" />
    <linearGradient
       id="id11"
       gradientTransform="matrix(-0.1233,0,0,-0.7107,854.325,-948.613)"
       xlink:href="#id2"
       x1="122.2"
       y1="-1671.5"
       x2="292.3"
       y2="-1671.5"
       gradientUnits="userSpaceOnUse" />
    <linearGradient
       id="id6">
      <stop
         offset="0"
         style="stop-color:black; stop-opacity:1;"
         id="stop65" />
      <stop
         offset="0.5"
         style="stop-color:#393939; stop-opacity:1;"
         id="stop67" />
      <stop
         offset="1"
         style="stop-color:#060000; stop-opacity:1;"
         id="stop69" />
    </linearGradient>
    <linearGradient
       id="id7">
      <stop
         offset="0"
         style="stop-color:#828282; stop-opacity:1;"
         id="stop72" />
      <stop
         offset="0.5"
         style="stop-color:#fff9f9; stop-opacity:1;"
         id="stop74" />
      <stop
         offset="1"
         style="stop-color:#828282; stop-opacity:1;"
         id="stop76" />
    </linearGradient>
    <linearGradient
       id="id4">
      <stop
         offset="0"
         style="stop-color:#b3b3b3; stop-opacity:1;"
         id="stop79" />
      <stop
         offset="0.5"
         style="stop-color:#cccccc; stop-opacity:1;"
         id="stop81" />
      <stop
         offset="1"
         style="stop-color:#808080; stop-opacity:1;"
         id="stop83" />
    </linearGradient>
    <linearGradient
       id="id8">
      <stop
         offset="0"
         style="stop-color:white; stop-opacity:0.06;"
         id="stop86" />
      <stop
         offset="0.5"
         style="stop-color:#dbdbdb; stop-opacity:0.08;"
         id="stop88" />
      <stop
         offset="1"
         style="stop-color:#d1d1d1; stop-opacity:0.06;"
         id="stop90" />
    </linearGradient>
    <linearGradient
       id="id9">
      <stop
         offset="0"
         style="stop-color:#139813; stop-opacity:1;"
         id="stop93" />
      <stop
         offset="0.5"
         style="stop-color:#27ab27; stop-opacity:1;"
         id="stop95" />
      <stop
         offset="1"
         style="stop-color:#1fba1f; stop-opacity:1;"
         id="stop97" />
    </linearGradient>
    <radialGradient
       id="id34"
       r="62.493"
       fx="-529.41"
       fy="658.97"
       cx="-529.4"
       cy="659"
       gradientTransform="matrix(0.78638,0,0,0.29034,141.06,478.32)"
       xlink:href="#id3"
       gradientUnits="userSpaceOnUse" />
    <g
       transform="translate(-137.90625,-551.15625)"
       id="g100">
      <rect
         x="138.4"
         y="551.6"
         width="3.6"
         height="3.6"
         style="fill:#666666; stroke:black; stroke-width:1;"
         id="rect102" />
      <rect
         x="143"
         y="556.5"
         width="3.6"
         height="3.6"
         style="fill:#666666; stroke:black; stroke-width:1;"
         id="rect104" />
      <rect
         x="138.4"
         y="556.5"
         width="3.6"
         height="3.6"
         style="fill:#666666; stroke:black; stroke-width:1;"
         id="rect106" />
      <rect
         x="143"
         y="551.6"
         width="3.6"
         height="3.6"
         style="fill:#666666; stroke:black; stroke-width:1;"
         id="rect108" />
    </g>
    <radialGradient
       id="id17"
       r="9.5914"
       fx="587.91"
       fy="249.29"
       cx="587.9"
       cy="249.3"
       gradientTransform="matrix(2.1548,-0.93897,1.2178,2.7946,-982.48,104.66)"
       xlink:href="#id4"
       gradientUnits="userSpaceOnUse" />
    <filter
       id="id20">
      <feGaussianBlur
         stdDeviation="3.1737901"
         id="feGaussianBlur112" />
    </filter>
    <radialGradient
       id="id26"
       r="9.5914"
       fx="587.91"
       fy="249.29"
       cx="587.9"
       cy="249.3"
       gradientTransform="matrix(2.1548,-0.93897,1.2178,2.7946,-982.48,104.66)"
       xlink:href="#id4"
       gradientUnits="userSpaceOnUse" />
    <radialGradient
       id="id27"
       r="9.5914"
       fx="587.91"
       fy="249.29"
       cx="587.9"
       cy="249.3"
       gradientTransform="matrix(2.1548,-0.93897,1.2178,2.7946,-982.48,104.66)"
       xlink:href="#id4"
       gradientUnits="userSpaceOnUse" />
    <radialGradient
       id="id28"
       r="9.5914"
       fx="587.91"
       fy="249.29"
       cx="587.9"
       cy="249.3"
       gradientTransform="matrix(2.1548,-0.93897,1.2178,2.7946,-982.48,104.66)"
       xlink:href="#id4"
       gradientUnits="userSpaceOnUse" />
    <radialGradient
       id="id29"
       r="9.5914"
       fx="587.91"
       fy="249.29"
       cx="587.9"
       cy="249.3"
       gradientTransform="matrix(2.1548,-0.93897,1.2178,2.7946,-982.48,104.66)"
       xlink:href="#id4"
       gradientUnits="userSpaceOnUse" />
    <radialGradient
       id="id30"
       r="9.5914"
       fx="587.91"
       fy="249.29"
       cx="587.9"
       cy="249.3"
       gradientTransform="matrix(2.1548,-0.93897,1.2178,2.7946,-982.48,104.66)"
       xlink:href="#id4"
       gradientUnits="userSpaceOnUse" />
    <radialGradient
       id="id31"
       r="9.5914"
       fx="587.91"
       fy="249.29"
       cx="587.9"
       cy="249.3"
       gradientTransform="matrix(2.1548,-0.93897,1.2178,2.7946,-982.48,104.66)"
       xlink:href="#id4"
       gradientUnits="userSpaceOnUse" />
    <linearGradient
       id="id12"
       gradientTransform="matrix(0.13406,0,0,0.13321,-405.01,533.11)"
       xlink:href="#id5"
       x1="52"
       y1="321"
       x2="681.3"
       y2="321"
       gradientUnits="userSpaceOnUse" />
    <linearGradient
       id="id13"
       gradientTransform="matrix(0.13406,0,0,0.13321,-405.01,533.11)"
       xlink:href="#id6"
       x1="104.1"
       y1="317.6"
       x2="560.6"
       y2="317.6"
       gradientUnits="userSpaceOnUse" />
    <linearGradient
       id="id15"
       gradientTransform="matrix(0.13406,0,0,0.13321,-405.01,533.11)"
       xlink:href="#id7"
       x1="514.2"
       y1="321.5"
       x2="536.4"
       y2="321.5"
       gradientUnits="userSpaceOnUse" />
    <linearGradient
       id="id16"
       gradientTransform="matrix(0.13406,0,0,0.13321,-404.73,532.97)"
       xlink:href="#id4"
       x1="590.2"
       y1="444.1"
       x2="666.2"
       y2="401.9"
       gradientUnits="userSpaceOnUse" />
    <linearGradient
       id="id18"
       gradientTransform="translate(54.643,40)"
       xlink:href="#id4"
       x1="592.1"
       y1="270.6"
       x2="592.7"
       y2="309.9"
       gradientUnits="userSpaceOnUse" />
    <linearGradient
       id="id19"
       xlink:href="#id8"
       x1="84.9"
       y1="320.5"
       x2="655.6"
       y2="320.5"
       gradientUnits="userSpaceOnUse" />
    <linearGradient
       id="id21"
       xlink:href="#id9"
       x1="591.2"
       y1="179.6"
       x2="654.4"
       y2="179.6"
       gradientUnits="userSpaceOnUse" />
    <linearGradient
       id="id22"
       xlink:href="#id9"
       x1="591.2"
       y1="179.6"
       x2="654.4"
       y2="179.6"
       gradientUnits="userSpaceOnUse" />
    <linearGradient
       id="id23"
       xlink:href="#id9"
       x1="591.2"
       y1="179.6"
       x2="654.4"
       y2="179.6"
       gradientUnits="userSpaceOnUse" />
    <linearGradient
       id="id24"
       xlink:href="#id9"
       x1="591.2"
       y1="179.6"
       x2="654.4"
       y2="179.6"
       gradientUnits="userSpaceOnUse" />
    <linearGradient
       id="id25"
       xlink:href="#id9"
       x1="591.2"
       y1="179.6"
       x2="654.4"
       y2="179.6"
       gradientUnits="userSpaceOnUse" />
    <linearGradient
       id="id32"
       gradientTransform="translate(54.643,40)"
       xlink:href="#id4"
       x1="592.1"
       y1="270.6"
       x2="592.7"
       y2="309.9"
       gradientUnits="userSpaceOnUse" />
    <linearGradient
       id="id33"
       gradientTransform="translate(54.643,40)"
       xlink:href="#id4"
       x1="592.1"
       y1="270.6"
       x2="592.7"
       y2="309.9"
       gradientUnits="userSpaceOnUse" />
  </defs>
  <rect
     x="0"
     y="82.1"
     width="1283.2"
     height="155.3"
     style="color:black; overflow:visible; fill:#f4ffd6; stroke-width:3.38; stroke-linecap:round;"
     id="rect133" />
  <path
     style="color:black; overflow:visible; fill:url(#id10); stroke-width:2;"
     d="M 930.6,341.7 H 742.8 v -58.3 h 187.8 z"
     id="path135" />
  <path
     style="stroke:black; stroke-width:2; stroke-linecap:round;"
     d="m 839.6,237.2 89.5,46.1 m -111.2,-46.1 -74.4,46.1"
     id="path137" />
  <text
     x="137.2"
     y="274"
     style="font-family:Arial; font-size:20px; color:black; overflow:visible;"
     id="text139"> 1 km </text>
  <text
     x="204.1"
     y="274"
     style="font-family:Arial; font-size:20px; color:black; overflow:visible;"
     id="text141"> 100 m </text>
  <text
     x="283"
     y="274"
     style="font-family:Arial; font-size:20px; color:black; overflow:visible;"
     id="text143"> 10 m </text>
  <text
     x="360"
     y="274"
     style="font-family:Arial; font-size:20px; color:black; overflow:visible;"
     id="text145"> 1 m </text>
  <text
     x="421.7"
     y="274"
     style="font-family:Arial; font-size:20px; color:black; overflow:visible;"
     id="text147"> 10 cm </text>
  <text
     x="498.7"
     y="274"
     style="font-family:Arial; font-size:20px; color:black; overflow:visible;"
     id="text149"> 1 cm </text>
  <text
     x="566.8"
     y="274"
     style="font-family:Arial; font-size:20px; color:black; overflow:visible;"
     id="text151"> 1 mm </text>
  <text
     x="629.4"
     y="274"
     style="font-family:Arial; font-size:20px; color:black; overflow:visible;"
     id="text153"> 100 µm </text>
  <text
     x="708.3"
     y="274"
     style="font-family:Arial; font-size:20px; color:black; overflow:visible;"
     id="text155"> 10 µm </text>
  <text
     x="785.7"
     y="274"
     style="font-family:Arial; font-size:20px; color:black; overflow:visible;"
     id="text157"> 1 µm </text>
  <text
     x="847.3"
     y="274"
     style="font-family:Arial; font-size:20px; color:black; overflow:visible;"
     id="text159"> 100 nm </text>
  <text
     x="920.2"
     y="274"
     style="font-family:Arial; font-size:20px; color:black; overflow:visible;"
     id="text161"> 10 nm </text>
  <text
     x="1145.6"
     y="274"
     style="font-family:Arial; font-size:20px; color:black; overflow:visible;"
     id="text163"> 0.1 Å </text>
  <text
     x="1082.4"
     y="274"
     style="font-family:Arial; font-size:20px; color:black; overflow:visible;"
     id="text165">1 Å</text>
  <text
     x="1001.2"
     y="274"
     style="font-family:Arial; font-size:20px; color:black; overflow:visible;"
     id="text167"> 1 nm </text>
  <text
     x="169.5"
     y="311.20001"
     style="color:#000000;font-size:35px;font-family:Arial;overflow:visible"
     id="text169">波长</text>
  <text
     x="976.8"
     y="55.1"
     style="font-family:Arial; font-size:20px; color:black; overflow:visible;"
     id="text171"> 10 </text>
  <text
     x="995.8"
     y="43.9"
     style="font-family:Arial; font-size:15px; color:black; overflow:visible; fill:#333333;"
     id="text173"> 17 </text>
  <text
     x="904.8"
     y="55.1"
     style="font-family:Arial; font-size:20px; color:black; overflow:visible;"
     id="text175"> 10 </text>
  <text
     x="925.4"
     y="43.9"
     style="font-family:Arial; font-size:15px; color:black; overflow:visible; fill:#333333;"
     id="text177"> 16 </text>
  <text
     x="832.9"
     y="55.1"
     style="font-family:Arial; font-size:20px; color:black; overflow:visible;"
     id="text179"> 10 </text>
  <text
     x="854.1"
     y="43.9"
     style="font-family:Arial; font-size:15px; color:black; overflow:visible; fill:#333333;"
     id="text181"> 15 </text>
  <text
     x="760.9"
     y="55.1"
     style="font-family:Arial; font-size:20px; color:black; overflow:visible;"
     id="text183"> 10 </text>
  <text
     x="781.7"
     y="43.9"
     style="font-family:Arial; font-size:15px; color:black; overflow:visible; fill:#333333;"
     id="text185"> 14 </text>
  <text
     x="688.6"
     y="55.1"
     style="font-family:Arial; font-size:20px; color:black; overflow:visible;"
     id="text187"> 10 </text>
  <text
     x="710.3"
     y="43.9"
     style="font-family:Arial; font-size:15px; color:black; overflow:visible; fill:#333333;"
     id="text189"> 13 </text>
  <text
     x="617"
     y="55.1"
     style="font-family:Arial; font-size:20px; color:black; overflow:visible;"
     id="text191"> 10 </text>
  <text
     x="639.1"
     y="43.9"
     style="font-family:Arial; font-size:15px; color:black; overflow:visible; fill:#333333;"
     id="text193"> 12 </text>
  <text
     x="545"
     y="55.1"
     style="font-family:Arial; font-size:20px; color:black; overflow:visible;"
     id="text195"> 10 </text>
  <text
     x="567.7"
     y="43.9"
     style="font-family:Arial; font-size:15px; color:black; overflow:visible; fill:#333333;"
     id="text197"> 11 </text>
  <text
     x="473"
     y="55.1"
     style="font-family:Arial; font-size:20px; color:black; overflow:visible;"
     id="text199"> 10 </text>
  <text
     x="492.5"
     y="43.9"
     style="font-family:Arial; font-size:15px; color:black; overflow:visible; fill:#333333;"
     id="text201"> 10 </text>
  <text
     x="401"
     y="55.1"
     style="font-family:Arial; font-size:20px; color:black; overflow:visible;"
     id="text203"> 10 </text>
  <text
     x="423"
     y="43.9"
     style="font-family:Arial; font-size:15px; color:black; overflow:visible; fill:#333333;"
     id="text205"> 9 </text>
  <text
     x="329.1"
     y="55.1"
     style="font-family:Arial; font-size:20px; color:black; overflow:visible;"
     id="text207"> 10 </text>
  <text
     x="352.6"
     y="43.9"
     style="font-family:Arial; font-size:15px; color:black; overflow:visible; fill:#333333;"
     id="text209"> 8 </text>
  <text
     x="190.8"
     y="55.1"
     style="font-family:Arial; font-size:20px; color:black; overflow:visible;"
     id="text211"> 10 </text>
  <text
     x="213"
     y="43.9"
     style="font-family:Arial; font-size:15px; color:black; overflow:visible; fill:#333333;"
     id="text213"> 6 </text>
  <text
     x="1000.3"
     y="29.6"
     style="color:#000000;font-size:35px;font-family:Arial;overflow:visible"
     id="text215">频率 (Hz)</text>
  <text
     x="1048.8"
     y="55.1"
     style="font-family:Arial; font-size:20px; color:black; overflow:visible;"
     id="text217"> 10 </text>
  <text
     x="1069.3"
     y="43.9"
     style="font-family:Arial; font-size:15px; color:black; overflow:visible; fill:#333333;"
     id="text219"> 18 </text>
  <text
     x="1120.8"
     y="55.1"
     style="font-family:Arial; font-size:20px; color:black; overflow:visible;"
     id="text221"> 10 </text>
  <text
     x="1139.6"
     y="43.9"
     style="font-family:Arial; font-size:15px; color:black; overflow:visible; fill:#333333;"
     id="text223"> 19 </text>
  <text
     x="257.1"
     y="55.1"
     style="font-family:Arial; font-size:20px; color:black; overflow:visible;"
     id="text225"> 10 </text>
  <text
     x="279.1"
     y="43.9"
     style="font-family:Arial; font-size:15px; color:black; overflow:visible; fill:#333333;"
     id="text227"> 7 </text>
  <g
     transform="translate(1182.35,268.707)"
     id="g229">
    <g
       style="fill:#3465a4; stroke:#3465a4; stroke-width:2;"
       id="g231">
      <path
         d="m -1021.5,-31.8 v 16.7"
         id="path233" />
      <path
         d="m -949.5,-31.8 v 16.7"
         id="path235" />
      <path
         d="m -733.5,-31.8 v 16.7"
         id="path237" />
      <path
         d="m -589.5,-31.8 v 16.7"
         id="path239" />
      <path
         d="m -373.5,-31.8 v 16.7"
         id="path241" />
      <path
         d="m -229.5,-31.8 v 16.7"
         id="path243" />
      <path
         d="m -157.5,-31.8 v 16.7"
         id="path245" />
      <path
         d="m -13.5,-31.8 v 16.7"
         id="path247" />
      <path
         d="m -877.5,-31.8 v 16.7"
         id="path249" />
      <path
         d="m -661.5,-31.8 v 16.7"
         id="path251" />
      <path
         d="m -445.5,-31.8 v 16.7"
         id="path253" />
      <path
         d="m -301.5,-31.8 v 16.7"
         id="path255" />
      <path
         d="m -85.5,-31.8 v 16.7"
         id="path257" />
      <path
         d="m -805.5,-31.8 v 16.7"
         id="path259" />
      <path
         d="m -517.5,-31.8 v 16.7"
         id="path261" />
    </g>
  </g>
  <text
     x="793.5918"
     y="316.79092"
     transform="scale(0.99770567,1.0022996)"
     style="color:#000000;font-size:31.29999924px;font-family:Arial;overflow:visible;fill:#ffffff;stroke:#ffffff;stroke-width:1"
     id="text263">可见光</text>
  <g
     transform="translate(1222.72,94.2069)"
     id="g265">
    <g
       style="fill:#c4a000; stroke:#3465a4; stroke-width:2;"
       id="g267">
      <path
         d="m -1021.5,-31.8 v 16.7"
         id="path269" />
      <path
         d="m -949.5,-31.8 v 16.7"
         id="path271" />
      <path
         d="m -733.5,-31.8 v 16.7"
         id="path273" />
      <path
         d="m -589.5,-31.8 v 16.7"
         id="path275" />
      <path
         d="m -373.5,-31.8 v 16.7"
         id="path277" />
      <path
         d="m -229.5,-31.8 v 16.7"
         id="path279" />
      <path
         d="m -157.5,-31.8 v 16.7"
         id="path281" />
      <path
         d="m -13.5,-31.8 v 16.7"
         id="path283" />
      <path
         d="m -877.5,-31.8 v 16.7"
         id="path285" />
      <path
         d="m -661.5,-31.8 v 16.7"
         id="path287" />
      <path
         d="m -445.5,-31.8 v 16.7"
         id="path289" />
      <path
         d="m -301.5,-31.8 v 16.7"
         id="path291" />
      <path
         d="m -85.5,-31.8 v 16.7"
         id="path293" />
      <path
         d="m -805.5,-31.8 v 16.7"
         id="path295" />
      <path
         d="m -517.5,-31.8 v 16.7"
         id="path297" />
    </g>
  </g>
  <text
     x="1192.8"
     y="55.1"
     style="font-family:Arial; font-size:20px; color:black; overflow:visible;"
     id="text299"> 10 </text>
  <text
     x="1213.6"
     y="43.9"
     style="font-family:Arial; font-size:15px; color:black; overflow:visible; fill:#333333;"
     id="text301"> 20 </text>
  <path
     style="fill:#c2c4ff; stroke:#0084c8; stroke-width:1; stroke-linecap:round; stroke-linejoin:round;"
     d="m 150.3,81.6 116.4,-0.3 c 4.7,0 14.3,10.3 15.1,23.6 1.8,42 5.3,85.3 11.3,130.4 l 188.2,0.6 c 8.1,-7.4 12.4,-17.7 17.6,-27.2 5.6,-8.8 2.1,-45 2.6,-48.2 2.9,-19.7 7,-21.7 15.5,0.4 4.9,9.7 8.2,1.9 8.9,-10.9 0.8,-14.3 1.4,-34.8 3,-44.7 3.3,-18.5 17.6,-4.7 22.7,28.1 1.5,8.4 5.1,11.9 5.7,0 1.2,-28.7 8.3,-52.2 23.2,-52.2 l 94.5,-0.3 c 11.1,0 13.4,2.1 18.6,15 3.2,8.1 9.2,26.7 10.2,33.7 0.8,6.6 3.1,11.9 4.3,1.8 0.9,-8.9 0.2,-18.6 2.7,-26.8 1.7,-9.6 3.3,-8.4 4,1.3 l 4.4,70.7 c 0.1,37.1 13.7,35.5 23.6,33.2 2.2,-32.2 1.1,-64.9 1.7,-97.1 -0.2,-4.8 2.2,-17.6 5.8,-0.3 2.2,18.3 4,36.7 8.4,55.1 1.4,5.7 4.1,15.5 4.9,1.9 0.4,-18.7 2.2,-37.4 3.8,-56.1 1,-10.3 3.5,-5.3 4.7,-2.3 1.4,5.5 2.9,11 3.3,18.4 l 3.4,75.7 c 1.6,-32 2.7,-63.8 3.3,-96.1 0.4,-9.8 3.3,-11.3 4.6,-0.5 2.4,30.1 3.6,60.2 7.5,90.4 l 5.6,-30.7 c 2.5,13.5 8.9,64.3 12,36.4 0.9,-10.6 3.6,-14.2 8.5,8.7 2.3,16.7 18.9,14.4 18.6,-2.2 -0.4,-28.8 1.2,-62.6 1.2,-80.4 0.1,-39.1 16.8,-50.5 27.9,-49.6 l 259.9,0.4 h 154.1 v 154.8 H 149 c 0,-34.8 1.2,-154.7 1.2,-154.7 z"
     id="path303" />
  <text
     x="43.5"
     y="100"
     style="color:#000000;font-size:40px;font-family:Arial;overflow:visible;fill:#0084c8;stroke-width:1px"
     id="text305">阻挡</text>
  <text
     x="43.299999"
     y="232.10001"
     style="color:#000000;font-size:40px;font-family:Arial;overflow:visible;fill:#0084c8;stroke-width:1px"
     id="text307">通过</text>
  <path
     style="color:black; overflow:visible; fill:url(#id11); stroke-width:2;"
     d="m 839.2,236 h -20.9 v -117.5 h 20.9 z"
     id="path309" />
  <text
     x="172.9"
     y="27.5"
     style="font-family:Arial; font-size:30px; color:black; overflow:visible; fill:black; stroke-width:1px;"
     id="text311">MHz</text>
  <text
     x="389.8"
     y="27.5"
     style="font-family:Arial; font-size:30px; color:black; overflow:visible; fill:black; stroke-width:1px;"
     id="text313">GHz</text>
  <text
     x="606.9"
     y="27.5"
     style="font-family:Arial; font-size:30px; color:black; overflow:visible; fill:black; stroke-width:1px;"
     id="text315">THz</text>
  <g
     transform="matrix(0.95187,0,0,1,371.685,-473.743)"
     id="g317">
    <g
       style="fill:none; stroke:#3465a4; stroke-width:1.95; stroke-linecap:round;"
       id="g319">
      <path
         d="m -249.1,561.7 c 52.1,1.6 86.6,92.8 136.1,92.7 49.5,0 92.8,-94.5 140.5,-94 47.7,0.4 76.3,95.5 114.1,94.8 37.9,-0.7 69.8,-93.4 110,-93.9"
         id="path321" />
      <path
         d="m 251,561.7 c 31.9,1.6 53,92.8 83.4,92.7 30.3,0 56.9,-94.5 86.1,-94 29.2,0.4 46.7,95.5 69.9,94.8 23.2,-0.7 42.8,-93.4 67.4,-93.9"
         id="path323" />
      <path
         d="m 558.1,561.7 c 16.5,1.6 27.4,92.8 43,92.7 15.7,0 29.3,-94.5 44.4,-94 15.1,0.4 24.1,95.5 36,94.8 12,-0.7 22.1,-93.4 34.8,-93.9"
         id="path325" />
      <path
         d="m 716.6,561.7 c 9.9,1.6 16.4,92.8 25.8,92.7 9.4,0 17.6,-94.5 26.6,-94 9,0.4 14.5,95.5 21.6,94.8 7.2,-0.7 13.2,-93.4 20.9,-93.9"
         id="path327" />
      <path
         d="m 812,561.7 c 5.9,1.6 9.8,92.8 15.4,92.7 5.7,0 10.6,-94.5 16,-94 5.4,0.4 8.7,95.5 13,94.8 4.4,-0.7 7.9,-93.4 12.6,-93.9"
         id="path329" />
      <path
         d="m 869.2,561.7 c 3.6,1.6 5.9,92.8 9.2,92.7 3.5,0 6.3,-94.5 9.6,-94 3.2,0.4 5.2,95.5 7.7,94.8 2.6,-0.7 4.7,-93.4 7.6,-93.9"
         id="path331" />
      <path
         d="m 903.6,561.7 c 2.1,1.6 3.5,92.8 5.4,92.7 2.1,0 3.8,-94.5 5.7,-94 1.8,0.4 3,95.5 4.6,94.8 1.6,-0.7 2.8,-93.4 4.5,-93.9"
         id="path333" />
      <path
         d="m 924.4,561.7 c 1.3,1.6 2,92.8 3.2,92.7 1.2,0 2.1,-94.5 3.2,-94 1.1,0.4 1.7,95.5 2.6,94.8 0.9,-0.7 1.6,-93.4 2.6,-93.9"
         id="path335" />
      <path
         d="m 936.6,561.7 c 0.7,1.6 1.2,92.8 1.7,92.7 0.7,0 1.2,-94.5 1.7,-94 0.6,0.4 1,95.5 1.5,94.8 0.5,-0.7 0.9,-93.4 1.5,-93.9"
         id="path337" />
      <path
         d="m 943.7,561.7 c 0.3,1.6 0.6,92.8 0.9,92.7 0.3,0 0.6,-94.5 0.9,-94 0.3,0.4 0.4,95.5 0.7,94.8 0.2,-0.7 0.4,-93.4 0.7,-93.9"
         id="path339" />
    </g>
  </g>
  <text
     x="1142.1"
     y="223.5"
     style="color:#000000;font-size:30px;font-family:Arial;overflow:visible"
     id="text341">伽马射线</text>
  <text
     x="1004.6"
     y="223.5"
     style="color:#000000;font-size:30px;font-family:Arial;overflow:visible"
     id="text343">X射线</text>
  <text
     x="881.79999"
     y="223.5"
     style="color:#000000;font-size:30px;font-family:Arial;overflow:visible"
     id="text345">紫外线</text>
  <text
     x="705.5"
     y="225.5"
     style="color:#000000;font-size:30px;font-family:Arial;overflow:visible"
     id="text347">红外线</text>
  <text
     x="246.29999"
     y="223.5"
     style="color:#000000;font-size:30px;font-family:Arial;overflow:visible"
     id="text349">无线电波</text>
  <text
     x="467.29999"
     y="223.5"
     style="color:#000000;font-size:30px;font-family:Arial;overflow:visible"
     id="text351">微波</text>
  <g
     transform="matrix(0.80705,0,0,0.80705,1260.2,-243.023)"
     id="g353">
    <circle
       cx="-222.7"
       cy="508.4"
       r="42.897"
       style="color:black; overflow:visible; fill:white; stroke-width:1;"
       id="circle355" />
    <g
       transform="matrix(0.20197,0,0,0.20197,-268.49,465.49)"
       id="g357">
      <path
         style="fill:none; stroke-width:7.09; stroke-linecap:round;"
         d="m 439.2,212.6 c 0,117.4 -95.2,212.6 -212.6,212.6 C 109.2,425.2 14,330 14,212.6 14,95.2 109.2,2e-5 226.6,2e-5 344,2e-5 439.2,95.2 439.2,212.6 Z"
         id="path359" />
      <path
         style="fill:#00ff00; stroke-width:7.09; stroke-linecap:round;"
         d="m 269.1,212.6 c 0,23.5 -19,42.5 -42.5,42.5 -23.5,0 -42.5,-19 -42.5,-42.5 0,-23.5 19,-42.5 42.5,-42.5 23.5,0 42.5,19 42.5,42.5 z"
         id="path361" />
      <path
         style="fill:#00ff00; stroke-width:7.09; stroke-linecap:round;"
         d="M 120.4,28.6 C 56.9,65.4 14,134 14,212.6 h 148.8 c 0,-23.6 12.9,-44.2 31.9,-55.2 z m 212.4,0 -74.3,128.8 c 19,11 31.9,31.6 31.9,55.2 H 439.2 C 439.2,134 396.3,65.4 332.8,28.6 Z M 258.5,267.8 c -9.4,5.4 -20.2,8.6 -31.8,8.6 -11.6,0 -22.5,-3.1 -31.9,-8.6 l -74.3,128.7 c 31.3,18.1 67.5,28.7 106.2,28.7 38.7,0 74.9,-10.6 106.2,-28.7 z"
         id="path363" />
    </g>
  </g>
  <g
     transform="translate(857.365,-413.743)"
     id="g365">
    <rect
       x="-397.8"
       y="551.4"
       rx="1.6"
       ry="1.6"
       width="84.2"
       height="49.2"
       style="fill:#666666; stroke:black; stroke-width:1;"
       id="rect367" />
    <rect
       x="-398"
       y="551.4"
       rx="1.6"
       ry="1.6"
       width="84.2"
       height="49"
       style="fill:url(#id12); stroke:black; stroke-width:1;"
       id="rect369" />
    <rect
       x="-392"
       y="562.1"
       rx="1.7"
       ry="1.6"
       width="62"
       height="27.1"
       style="opacity:0.59; fill:#999999;"
       id="rect371" />
    <path
       style="fill:url(#id13);"
       d="m -339.6,562.2 h 9.7 v 26.5 h -9.7 z m -49.9,-0.1 h 56.1 c 0.9,0 1.6,0.7 1.6,1.6 v 23.2 c 0,0.9 -0.7,1.6 -1.6,1.6 h -56.1 c -0.9,0 -1.6,-0.7 -1.6,-1.6 v -23.2 c 0,-0.9 0.7,-1.6 1.6,-1.6 z"
       id="path373" />
    <rect
       x="-387.4"
       y="563.3"
       width="47.1"
       height="23.8"
       style="fill:url(#id14);"
       id="rect375" />
    <rect
       x="-328"
       y="554.3"
       rx="0.9"
       ry="0.9"
       width="12.9"
       height="5.4"
       style="fill:black;"
       id="rect377" />
    <rect
       x="-336.1"
       y="553.4"
       rx="0.9"
       ry="0.9"
       width="3"
       height="45.1"
       style="fill:url(#id15); stroke:#808080; stroke-width:1;"
       id="rect379" />
    <ellipse
       cx="-321.7"
       cy="589.4"
       rx="3"
       ry="3"
       style="fill:#999999;"
       id="ellipse381" />
    <ellipse
       cx="-321.6"
       cy="589.5"
       rx="2.8"
       ry="2.8"
       style="fill:#1a1a1a;"
       id="ellipse383" />
    <ellipse
       cx="-321"
       cy="589.5"
       rx="2.8"
       ry="2.8"
       style="fill:url(#id16); stroke:#808080; stroke-width:1;"
       id="ellipse385" />
    <g
       transform="matrix(0.13406,0,0,0.13321,-404.72,533.15)"
       id="g387">
      <circle
         cx="587.9"
         cy="249.3"
         r="9.0914"
         transform="translate(-1.3673,125.86)"
         style="fill:#666666; stroke:#4d4d4d; stroke-width:7.48;"
         id="circle389" />
      <circle
         cx="587.9"
         cy="249.3"
         r="9.0914"
         transform="translate(-0.35714,125.36)"
         style="fill:url(#id17); stroke:#4d4d4d; stroke-width:7.48;"
         id="circle391" />
    </g>
    <g
       transform="matrix(0.13406,0,0,0.13321,-404.91,533.11)"
       id="g393">
      <rect
         x="631.5"
         y="323.5"
         rx="7.1"
         ry="7.1"
         width="30.3"
         height="17.2"
         style="fill:#4d4d4d; stroke:#4d4d4d; stroke-width:7.48;"
         id="rect395" />
      <rect
         x="632.9"
         y="322.8"
         rx="7.1"
         ry="7.1"
         width="30.3"
         height="17.2"
         style="fill:url(#id18); stroke:#4d4d4d; stroke-width:7.48;"
         id="rect397" />
    </g>
    <path
       transform="matrix(0.09144,0,0,0.0686,-398.86,553.72)"
       style="opacity:0.27; fill:url(#id19); filter:url(#id20);"
       d="M 290.9,136.2 84.9,503.9 487.9,504.9 655.6,136.2 Z"
       id="path399" />
    <rect
       x="-329.9"
       y="551.3"
       rx="0.6"
       ry="1"
       width="0.7"
       height="49.3"
       style="fill:#1a1a1a; stroke:#e6e6e6; stroke-width:0.78;"
       id="rect401" />
    <rect
       x="-388.7"
       y="600.6"
       rx="0"
       ry="1.5"
       width="2.3"
       height="1.5"
       style="fill:black; stroke:black; stroke-width:1;"
       id="rect403" />
    <rect
       x="-327.8"
       y="600.6"
       rx="0"
       ry="1.5"
       width="2.3"
       height="1.5"
       style="fill:black; stroke:black; stroke-width:1;"
       id="rect405" />
    <g
       transform="matrix(0.13406,0,0,0.13321,-404.81,532.92)"
       id="g407">
      <path
         style="font-family:Arial; font-size:24px; fill:url(#id21);"
         d="m 600,188 h -6.5 l -2.3,-2.3 v -12.1 l 2.3,-2.3 H 600 l 2.3,2.3 v 12.1 l -2.3,2.3 m -5.1,-14.9 v 13.1 h 3.7 v -13.1 h -3.7"
         id="path409" />
      <path
         style="font-family:Arial; font-size:24px; fill:url(#id22);"
         d="m 614.9,188 h -6.5 l -2.3,-2.3 v -12.1 l 2.3,-2.3 h 6.5 l 2.3,2.3 v 12.1 l -2.3,2.3 m -5.1,-14.9 v 13.1 h 3.7 v -13.1 h -3.7"
         id="path411" />
      <path
         style="font-family:Arial; font-size:24px; fill:url(#id23);"
         d="m 624.6,188 h -3.7 v -3.5 h 3.7 v 3.5 m 0,-11.2 h -3.7 v -3.4 h 3.7 v 3.4"
         id="path413" />
      <path
         style="font-family:Arial; font-size:24px; fill:url(#id24);"
         d="m 637.2,188 h -6.5 l -2.4,-2.3 v -12.1 l 2.4,-2.3 h 6.5 l 2.3,2.3 v 12.1 l -2.3,2.3 m -5.1,-14.9 v 13.1 h 3.7 v -13.1 h -3.7"
         id="path415" />
      <path
         style="font-family:Arial; font-size:24px; fill:url(#id25);"
         d="m 652,188 h -6.5 l -2.4,-2.3 v -12.1 l 2.4,-2.3 h 6.5 l 2.3,2.3 v 12.1 l -2.3,2.3 m -5.1,-14.9 v 13.1 h 3.7 v -13.1 h -3.7"
         id="path417" />
    </g>
    <g
       transform="matrix(0.13406,0,0,0.13321,-395.72,533.15)"
       id="g419">
      <circle
         cx="587.9"
         cy="249.3"
         r="9.0914"
         transform="translate(-1.3673,125.86)"
         style="fill:#666666; stroke:#4d4d4d; stroke-width:7.48;"
         id="circle421" />
      <circle
         cx="587.9"
         cy="249.3"
         r="9.0914"
         transform="translate(-0.35714,125.36)"
         style="fill:url(#id26); stroke:#4d4d4d; stroke-width:7.48;"
         id="circle423" />
    </g>
    <g
       transform="matrix(0.13406,0,0,0.13321,-400.32,533.15)"
       id="g425">
      <circle
         cx="587.9"
         cy="249.3"
         r="9.0914"
         transform="translate(-1.3673,125.86)"
         style="fill:#666666; stroke:#4d4d4d; stroke-width:7.48;"
         id="circle427" />
      <circle
         cx="587.9"
         cy="249.3"
         r="9.0914"
         transform="translate(-0.35714,125.36)"
         style="fill:url(#id27); stroke:#4d4d4d; stroke-width:7.48;"
         id="circle429" />
    </g>
    <g
       transform="matrix(0.13406,0,0,0.13321,-404.72,515.99)"
       id="g431">
      <circle
         cx="587.9"
         cy="249.3"
         r="9.0914"
         transform="translate(-1.3673,125.86)"
         style="fill:#666666; stroke:#4d4d4d; stroke-width:7.48;"
         id="circle433" />
      <circle
         cx="587.9"
         cy="249.3"
         r="9.0914"
         transform="translate(-0.35714,125.36)"
         style="fill:url(#id28); stroke:#4d4d4d; stroke-width:7.48;"
         id="circle435" />
    </g>
    <g
       transform="matrix(0.13406,0,0,0.13321,-395.72,515.99)"
       id="g437">
      <circle
         cx="587.9"
         cy="249.3"
         r="9.0914"
         transform="translate(-1.3673,125.86)"
         style="fill:#666666; stroke:#4d4d4d; stroke-width:7.48;"
         id="circle439" />
      <circle
         cx="587.9"
         cy="249.3"
         r="9.0914"
         transform="translate(-0.35714,125.36)"
         style="fill:url(#id29); stroke:#4d4d4d; stroke-width:7.48;"
         id="circle441" />
    </g>
    <g
       transform="matrix(0.13406,0,0,0.13321,-400.32,515.99)"
       id="g443">
      <circle
         cx="587.9"
         cy="249.3"
         r="9.0914"
         transform="translate(-1.3673,125.86)"
         style="fill:#666666; stroke:#4d4d4d; stroke-width:7.48;"
         id="circle445" />
      <circle
         cx="587.9"
         cy="249.3"
         r="9.0914"
         transform="translate(-0.35714,125.36)"
         style="fill:url(#id30); stroke:#4d4d4d; stroke-width:7.48;"
         id="circle447" />
    </g>
    <g
       transform="matrix(0.13406,0,0,0.13321,-404.72,527.03)"
       id="g449">
      <circle
         cx="587.9"
         cy="249.3"
         r="9.0914"
         transform="translate(-1.3673,125.86)"
         style="fill:#666666; stroke:#4d4d4d; stroke-width:7.48;"
         id="circle451" />
      <circle
         cx="587.9"
         cy="249.3"
         r="9.0914"
         transform="translate(-0.35714,125.36)"
         style="fill:url(#id31); stroke:#4d4d4d; stroke-width:7.48;"
         id="circle453" />
    </g>
    <g
       transform="matrix(0.13406,0,0,0.13321,-404.91,527.59)"
       id="g455">
      <rect
         x="631.5"
         y="323.5"
         rx="7.1"
         ry="7.1"
         width="30.3"
         height="17.2"
         style="fill:#4d4d4d; stroke:#4d4d4d; stroke-width:7.48;"
         id="rect457" />
      <rect
         x="632.9"
         y="322.8"
         rx="7.1"
         ry="7.1"
         width="30.3"
         height="17.2"
         style="fill:url(#id32); stroke:#4d4d4d; stroke-width:7.48;"
         id="rect459" />
    </g>
    <g
       transform="matrix(0.13406,0,0,0.13321,-412.09,527.59)"
       id="g461">
      <rect
         x="631.5"
         y="323.5"
         rx="7.1"
         ry="7.1"
         width="30.3"
         height="17.2"
         style="fill:#4d4d4d; stroke:#4d4d4d; stroke-width:7.48;"
         id="rect463" />
      <rect
         x="632.9"
         y="322.8"
         rx="7.1"
         ry="7.1"
         width="30.3"
         height="17.2"
         style="fill:url(#id33); stroke:#4d4d4d; stroke-width:7.48;"
         id="rect465" />
    </g>
  </g>
  <g
     transform="translate(650.275,-478.203)"
     id="g467">
    <path
       style="fill:white; stroke:black; stroke-width:2; stroke-linecap:round; stroke-linejoin:round;"
       d="m -388.2,639.8 c 10.1,6.7 22.6,14.4 24.1,21 l 13.6,1.7 c 4.3,-7.8 17.4,-10.6 26.7,-15.5 z"
       id="path469" />
    <ellipse
       cx="-275.3"
       cy="669.6"
       rx="48.4"
       ry="17.4"
       transform="matrix(0.99272,0.12044,-0.12071,0.99269,0,0)"
       style="fill:url(#id34); stroke:black; stroke-width:2; stroke-linecap:round; stroke-linejoin:round;"
       id="ellipse471" />
    <path
       style="fill:none; stroke:black; stroke-width:2; stroke-linecap:round; stroke-linejoin:round;"
       d="m -392.6,638 45.6,-44.3 28.7,52.9"
       id="path473" />
    <path
       style="fill:none; stroke:black; stroke-width:2; stroke-linecap:round; stroke-linejoin:round;"
       d="m -347.1,594.4 -1.9,20"
       id="path475" />
    <ellipse
       cx="-272.8"
       cy="631.5"
       rx="2.5"
       ry="2.5"
       transform="matrix(0.99272,0.12044,-0.12071,0.99269,0,0)"
       style="fill:black; stroke-width:2; stroke-linecap:round; stroke-linejoin:round;"
       id="ellipse477" />
    <ellipse
       cx="-274.8"
       cy="671.2"
       rx="2.9"
       ry="2.4"
       transform="matrix(0.99272,0.12044,-0.12071,0.99269,0,0)"
       style="fill:black; stroke-width:2; stroke-linecap:round; stroke-linejoin:round;"
       id="ellipse479" />
  </g>
</svg>
